<?xml version="1.0" encoding="utf-8" standalone="no"?>
<!DOCTYPE svg PUBLIC "-//W3C//DTD SVG 1.1//EN"
  "http://www.w3.org/Graphics/SVG/1.1/DTD/svg11.dtd">
<!-- Created with matplotlib (http://matplotlib.org/) -->
<svg height="576pt" version="1.1" viewBox="0 0 1296 576" width="1296pt" xmlns="http://www.w3.org/2000/svg" xmlns:xlink="http://www.w3.org/1999/xlink">
 <defs>
  <style type="text/css">
*{stroke-linecap:butt;stroke-linejoin:round;}
  </style>
 </defs>
 <g id="figure_1">
  <g id="patch_1">
   <path d="M 0 576 
L 1296 576 
L 1296 0 
L 0 0 
z
" style="fill:none;"/>
  </g>
  <g id="axes_1">
   <g id="patch_2">
    <path d="M 47.05 543.2 
L 1281.7 543.2 
L 1281.7 38.8 
L 47.05 38.8 
z
" style="fill:none;"/>
   </g>
   <g id="matplotlib.axis_1">
    <g id="xtick_1">
     <g id="line2d_1">
      <defs>
       <path d="M 0 0 
L 0 3.5 
" id="madd635b3c7" style="stroke:#000000;stroke-width:0.8;"/>
      </defs>
      <g>
       <use style="stroke:#000000;stroke-width:0.8;" x="150.196959" xlink:href="#madd635b3c7" y="543.2"/>
      </g>
     </g>
     <g id="text_1">
      <!-- Mar -->
      <defs>
       <path d="M 9.8125 72.90625 
L 24.515625 72.90625 
L 43.109375 23.296875 
L 61.8125 72.90625 
L 76.515625 72.90625 
L 76.515625 0 
L 66.890625 0 
L 66.890625 64.015625 
L 48.09375 14.015625 
L 38.1875 14.015625 
L 19.390625 64.015625 
L 19.390625 0 
L 9.8125 0 
z
" id="DejaVuSans-4d"/>
       <path d="M 34.28125 27.484375 
Q 23.390625 27.484375 19.1875 25 
Q 14.984375 22.515625 14.984375 16.5 
Q 14.984375 11.71875 18.140625 8.90625 
Q 21.296875 6.109375 26.703125 6.109375 
Q 34.1875 6.109375 38.703125 11.40625 
Q 43.21875 16.703125 43.21875 25.484375 
L 43.21875 27.484375 
z
M 52.203125 31.203125 
L 52.203125 0 
L 43.21875 0 
L 43.21875 8.296875 
Q 40.140625 3.328125 35.546875 0.953125 
Q 30.953125 -1.421875 24.3125 -1.421875 
Q 15.921875 -1.421875 10.953125 3.296875 
Q 6 8.015625 6 15.921875 
Q 6 25.140625 12.171875 29.828125 
Q 18.359375 34.515625 30.609375 34.515625 
L 43.21875 34.515625 
L 43.21875 35.40625 
Q 43.21875 41.609375 39.140625 45 
Q 35.0625 48.390625 27.6875 48.390625 
Q 23 48.390625 18.546875 47.265625 
Q 14.109375 46.140625 10.015625 43.890625 
L 10.015625 52.203125 
Q 14.9375 54.109375 19.578125 55.046875 
Q 24.21875 56 28.609375 56 
Q 40.484375 56 46.34375 49.84375 
Q 52.203125 43.703125 52.203125 31.203125 
z
" id="DejaVuSans-61"/>
       <path d="M 41.109375 46.296875 
Q 39.59375 47.171875 37.8125 47.578125 
Q 36.03125 48 33.890625 48 
Q 26.265625 48 22.1875 43.046875 
Q 18.109375 38.09375 18.109375 28.8125 
L 18.109375 0 
L 9.078125 0 
L 9.078125 54.6875 
L 18.109375 54.6875 
L 18.109375 46.1875 
Q 20.953125 51.171875 25.484375 53.578125 
Q 30.03125 56 36.53125 56 
Q 37.453125 56 38.578125 55.875 
Q 39.703125 55.765625 41.0625 55.515625 
z
" id="DejaVuSans-72"/>
      </defs>
      <g transform="translate(135.103209 562.3575)scale(0.16 -0.16)">
       <use xlink:href="#DejaVuSans-4d"/>
       <use x="86.279297" xlink:href="#DejaVuSans-61"/>
       <use x="147.558594" xlink:href="#DejaVuSans-72"/>
      </g>
     </g>
    </g>
    <g id="xtick_2">
     <g id="line2d_2">
      <g>
       <use style="stroke:#000000;stroke-width:0.8;" x="606.990636" xlink:href="#madd635b3c7" y="543.2"/>
      </g>
     </g>
     <g id="text_2">
      <!-- Apr -->
      <defs>
       <path d="M 34.1875 63.1875 
L 20.796875 26.90625 
L 47.609375 26.90625 
z
M 28.609375 72.90625 
L 39.796875 72.90625 
L 67.578125 0 
L 57.328125 0 
L 50.6875 18.703125 
L 17.828125 18.703125 
L 11.1875 0 
L 0.78125 0 
z
" id="DejaVuSans-41"/>
       <path d="M 18.109375 8.203125 
L 18.109375 -20.796875 
L 9.078125 -20.796875 
L 9.078125 54.6875 
L 18.109375 54.6875 
L 18.109375 46.390625 
Q 20.953125 51.265625 25.265625 53.625 
Q 29.59375 56 35.59375 56 
Q 45.5625 56 51.78125 48.09375 
Q 58.015625 40.1875 58.015625 27.296875 
Q 58.015625 14.40625 51.78125 6.484375 
Q 45.5625 -1.421875 35.59375 -1.421875 
Q 29.59375 -1.421875 25.265625 0.953125 
Q 20.953125 3.328125 18.109375 8.203125 
z
M 48.6875 27.296875 
Q 48.6875 37.203125 44.609375 42.84375 
Q 40.53125 48.484375 33.40625 48.484375 
Q 26.265625 48.484375 22.1875 42.84375 
Q 18.109375 37.203125 18.109375 27.296875 
Q 18.109375 17.390625 22.1875 11.75 
Q 26.265625 6.109375 33.40625 6.109375 
Q 40.53125 6.109375 44.609375 11.75 
Q 48.6875 17.390625 48.6875 27.296875 
z
" id="DejaVuSans-70"/>
      </defs>
      <g transform="translate(593.150636 562.3575)scale(0.16 -0.16)">
       <use xlink:href="#DejaVuSans-41"/>
       <use x="68.408203" xlink:href="#DejaVuSans-70"/>
       <use x="131.884766" xlink:href="#DejaVuSans-72"/>
      </g>
     </g>
    </g>
    <g id="xtick_3">
     <g id="line2d_3">
      <g>
       <use style="stroke:#000000;stroke-width:0.8;" x="1049.049032" xlink:href="#madd635b3c7" y="543.2"/>
      </g>
     </g>
     <g id="text_3">
      <!-- May -->
      <defs>
       <path d="M 32.171875 -5.078125 
Q 28.375 -14.84375 24.75 -17.8125 
Q 21.140625 -20.796875 15.09375 -20.796875 
L 7.90625 -20.796875 
L 7.90625 -13.28125 
L 13.1875 -13.28125 
Q 16.890625 -13.28125 18.9375 -11.515625 
Q 21 -9.765625 23.484375 -3.21875 
L 25.09375 0.875 
L 2.984375 54.6875 
L 12.5 54.6875 
L 29.59375 11.921875 
L 46.6875 54.6875 
L 56.203125 54.6875 
z
" id="DejaVuSans-79"/>
      </defs>
      <g transform="translate(1032.509032 562.3575)scale(0.16 -0.16)">
       <use xlink:href="#DejaVuSans-4d"/>
       <use x="86.279297" xlink:href="#DejaVuSans-61"/>
       <use x="147.558594" xlink:href="#DejaVuSans-79"/>
      </g>
     </g>
    </g>
   </g>
   <g id="matplotlib.axis_2">
    <g id="ytick_1">
     <g id="line2d_4">
      <defs>
       <path d="M 0 0 
L -3.5 0 
" id="ma69c37df07" style="stroke:#000000;stroke-width:0.8;"/>
      </defs>
      <g>
       <use style="stroke:#000000;stroke-width:0.8;" x="47.05" xlink:href="#ma69c37df07" y="459.134174"/>
      </g>
     </g>
     <g id="text_4">
      <!-- ☹ -->
      <defs>
       <path d="M 31.34375 49.859375 
Q 31.34375 52.734375 33.3125 54.703125 
Q 35.296875 56.6875 38.1875 56.6875 
Q 41.015625 56.6875 43.015625 54.703125 
Q 45.015625 52.734375 45.015625 49.84375 
Q 45.015625 46.96875 43.015625 44.96875 
Q 41.015625 42.96875 38.1875 42.96875 
Q 35.296875 42.96875 33.3125 44.984375 
Q 31.34375 47.015625 31.34375 49.859375 
z
M 59.578125 49.859375 
Q 59.578125 52.734375 61.578125 54.703125 
Q 63.578125 56.6875 66.40625 56.6875 
Q 69.234375 56.6875 71.265625 54.703125 
Q 73.296875 52.734375 73.296875 49.859375 
Q 73.296875 47.015625 71.265625 44.984375 
Q 69.234375 42.96875 66.40625 42.96875 
Q 63.53125 42.96875 61.546875 44.984375 
Q 59.578125 47.015625 59.578125 49.859375 
z
M 8.296875 36.421875 
Q 8.296875 54.640625 21.140625 67.5 
Q 33.984375 80.375 52.15625 80.375 
Q 70.359375 80.375 83.15625 67.5 
Q 95.953125 54.640625 95.953125 36.421875 
Q 95.953125 18.265625 83.15625 5.46875 
Q 70.359375 -7.328125 52.15625 -7.328125 
Q 33.984375 -7.328125 21.140625 5.46875 
Q 8.296875 18.265625 8.296875 36.421875 
z
M 14.890625 36.421875 
Q 14.890625 21 25.796875 10.125 
Q 36.71875 -0.734375 52.15625 -0.734375 
Q 67.625 -0.734375 78.484375 10.125 
Q 89.359375 21 89.359375 36.421875 
Q 89.359375 51.90625 78.484375 62.84375 
Q 67.625 73.78125 52.15625 73.78125 
Q 36.71875 73.78125 25.796875 62.84375 
Q 14.890625 51.90625 14.890625 36.421875 
z
M 26.421875 16.21875 
Q 28.171875 18.953125 30.671875 21.4375 
Q 39.546875 30.28125 52.140625 30.28125 
Q 64.75 30.28125 73.640625 21.4375 
Q 76.078125 18.953125 77.875 16.21875 
L 72.265625 12.703125 
Q 70.84375 14.84375 68.953125 16.75 
Q 62.015625 23.6875 52.140625 23.6875 
Q 42.28125 23.6875 35.359375 16.796875 
Q 33.40625 14.84375 32.03125 12.75 
z
" id="DejaVuSans-2639"/>
      </defs>
      <g transform="translate(10.86 469.771987)scale(0.28 -0.28)">
       <use xlink:href="#DejaVuSans-2639"/>
      </g>
     </g>
    </g>
    <g id="ytick_2">
     <g id="line2d_5">
      <g>
       <use style="stroke:#000000;stroke-width:0.8;" x="47.05" xlink:href="#ma69c37df07" y="122.865826"/>
      </g>
     </g>
     <g id="text_5">
      <!-- ☺ -->
      <defs>
       <path d="M 31.34375 49.859375 
Q 31.34375 52.734375 33.3125 54.703125 
Q 35.296875 56.6875 38.1875 56.6875 
Q 41.015625 56.6875 43.015625 54.703125 
Q 45.015625 52.734375 45.015625 49.84375 
Q 45.015625 46.96875 43.015625 44.96875 
Q 41.015625 42.96875 38.1875 42.96875 
Q 35.296875 42.96875 33.3125 44.984375 
Q 31.34375 47.015625 31.34375 49.859375 
z
M 59.578125 49.859375 
Q 59.578125 52.734375 61.578125 54.703125 
Q 63.578125 56.6875 66.40625 56.6875 
Q 69.234375 56.6875 71.265625 54.703125 
Q 73.296875 52.734375 73.296875 49.859375 
Q 73.296875 47.015625 71.265625 44.984375 
Q 69.234375 42.96875 66.40625 42.96875 
Q 63.53125 42.96875 61.546875 44.984375 
Q 59.578125 47.015625 59.578125 49.859375 
z
M 8.296875 36.421875 
Q 8.296875 54.640625 21.140625 67.5 
Q 33.984375 80.375 52.15625 80.375 
Q 70.359375 80.375 83.15625 67.5 
Q 95.953125 54.640625 95.953125 36.421875 
Q 95.953125 18.265625 83.15625 5.46875 
Q 70.359375 -7.328125 52.15625 -7.328125 
Q 33.984375 -7.328125 21.140625 5.46875 
Q 8.296875 18.265625 8.296875 36.421875 
z
M 14.890625 36.421875 
Q 14.890625 21 25.796875 10.125 
Q 36.71875 -0.734375 52.15625 -0.734375 
Q 67.625 -0.734375 78.484375 10.125 
Q 89.359375 21 89.359375 36.421875 
Q 89.359375 51.90625 78.484375 62.84375 
Q 67.625 73.78125 52.15625 73.78125 
Q 36.71875 73.78125 25.796875 62.84375 
Q 14.890625 51.90625 14.890625 36.421875 
z
M 26.421875 22.703125 
L 32.03125 26.171875 
Q 33.40625 24.078125 35.359375 22.171875 
Q 42.28125 15.234375 52.140625 15.234375 
Q 62.015625 15.234375 68.953125 22.171875 
Q 70.84375 24.078125 72.265625 26.21875 
L 77.875 22.703125 
Q 76.078125 19.96875 73.640625 17.484375 
Q 64.75 8.640625 52.140625 8.640625 
Q 39.546875 8.640625 30.671875 17.484375 
Q 28.171875 19.96875 26.421875 22.703125 
z
" id="DejaVuSans-263a"/>
      </defs>
      <g transform="translate(10.86 133.503638)scale(0.28 -0.28)">
       <use xlink:href="#DejaVuSans-263a"/>
      </g>
     </g>
    </g>
   </g>
   <g id="line2d_6">
    <path clip-path="url(#pf42f0bc4fe)" d="M 47.05 291 
L 1281.7 291 
" style="fill:none;stroke:#808080;stroke-linecap:square;stroke-width:1.5;"/>
   </g>
   <g id="line2d_7">
    <path clip-path="url(#pf42f0bc4fe)" d="M 133.213696 284.373228 
L 147.948976 286.493288 
L 162.684256 278.041737 
L 177.419536 278.12356 
L 192.154816 271.678234 
L 206.890096 264.078122 
L 221.625376 261.517777 
L 236.360656 273.444883 
L 251.095935 279.256914 
L 265.831215 286.168609 
L 280.566495 289.477954 
L 295.301775 285.180208 
L 310.037055 277.155394 
L 324.772335 272.416793 
L 339.507615 270.32306 
L 354.242895 267.770325 
L 368.978174 272.471936 
L 383.713454 272.93952 
L 398.448734 275.507502 
L 413.184014 279.812557 
L 427.919294 284.279486 
L 442.654574 287.30295 
L 457.389854 290.833218 
L 472.125134 292.117411 
L 486.860414 287.370799 
L 501.595693 283.97362 
L 516.330973 310.616986 
L 531.066253 239.34655 
L 545.801533 252.5965 
L 560.536813 293.558959 
L 575.272093 341.430635 
L 590.007373 263.880426 
L 604.742653 320.271185 
L 619.477932 333.478961 
L 634.213212 266.037579 
L 648.948492 176.003644 
L 663.683772 193.244699 
L 678.419052 202.386743 
L 693.154332 166.41964 
L 707.889612 241.400275 
L 722.624892 298.419858 
L 737.360172 338.430074 
L 752.095451 321.489408 
L 766.830731 298.000798 
L 781.566011 283.012419 
L 796.301291 274.384855 
L 811.036571 171.759252 
L 825.771851 157.51395 
L 840.507131 176.362979 
L 855.242411 146.514686 
L 869.97769 144.381782 
L 884.71297 253.92658 
L 899.44825 385.192466 
L 914.18353 348.62553 
L 928.91881 298.692936 
L 943.65409 266.727117 
L 958.38937 217.944311 
L 973.12465 123.153523 
L 987.85993 166.160047 
L 1002.595209 218.040521 
L 1017.330489 222.371186 
L 1032.065769 221.979157 
L 1046.801049 198.98489 
L 1061.536329 235.739021 
L 1076.271609 188.798515 
L 1091.006889 206.63969 
L 1105.742169 108.81759 
L 1120.477448 129.446367 
L 1135.212728 141.431311 
L 1149.948008 146.894644 
L 1164.683288 185.159408 
L 1179.418568 304.432043 
L 1194.153848 168.692448 
L 1208.889128 121.570269 
L 1223.624408 120.387687 
L 1238.359688 220.173543 
" style="fill:none;stroke:#1f77b4;stroke-linecap:square;stroke-width:3;"/>
   </g>
   <g id="line2d_8">
    <path clip-path="url(#pf42f0bc4fe)" d="M 133.213696 275.197413 
L 147.948976 273.424566 
L 162.684256 276.005957 
L 177.419536 273.872273 
L 192.154816 276.354098 
L 206.890096 285.130789 
L 221.625376 292.161172 
L 236.360656 295.742217 
L 251.095935 296.58496 
L 265.831215 291.081181 
L 280.566495 281.815456 
L 295.301775 281.55468 
L 310.037055 280.699025 
L 324.772335 283.00423 
L 339.507615 287.086588 
L 354.242895 292.459831 
L 368.978174 287.456704 
L 383.713454 286.08509 
L 398.448734 287.034795 
L 413.184014 282.176954 
L 427.919294 280.516011 
L 442.654574 283.683969 
L 457.389854 286.588487 
L 472.125134 284.826364 
L 486.860414 287.078771 
L 501.595693 286.311851 
L 516.330973 229.314124 
L 531.066253 152.664193 
L 545.801533 155.944183 
L 560.536813 109.046128 
L 575.272093 33.247191 
L 590.007373 58.328182 
L 604.742653 105.994174 
L 619.477932 101.157739 
L 634.213212 131.402448 
L 648.948492 216.465698 
L 663.683772 302.653682 
L 678.419052 291.600566 
L 693.154332 234.27735 
L 707.889612 327.989931 
L 722.624892 291.247717 
L 737.360172 205.912968 
L 752.095451 248.577115 
L 766.830731 204.746679 
L 781.566011 151.850633 
L 796.301291 167.708708 
L 811.036571 278.980161 
L 825.771851 279.058172 
L 840.507131 419.135055 
L 855.242411 343.770153 
L 869.97769 328.963401 
L 884.71297 368.700671 
L 899.44825 300.465688 
L 914.18353 344.74831 
L 928.91881 376.533932 
L 943.65409 307.405814 
L 958.38937 222.744588 
L 973.12465 322.226458 
L 987.85993 187.706862 
L 1002.595209 144.821637 
L 1017.330489 262.827693 
L 1032.065769 204.430981 
L 1046.801049 160.57679 
L 1061.536329 250.534701 
L 1076.271609 289.574599 
L 1091.006889 127.963224 
L 1105.742169 268.977983 
L 1120.477448 287.549241 
L 1135.212728 204.7231 
L 1149.948008 265.797226 
L 1164.683288 429.285342 
L 1179.418568 284.193909 
L 1194.153848 259.500361 
L 1208.889128 264.243849 
L 1223.624408 260.923227 
L 1238.359688 230.675501 
" style="fill:none;stroke:#ff7f0e;stroke-linecap:square;stroke-width:3;"/>
   </g>
   <g id="text_6">
    <!-- Houston -->
    <defs>
     <path d="M 9.8125 72.90625 
L 19.671875 72.90625 
L 19.671875 43.015625 
L 55.515625 43.015625 
L 55.515625 72.90625 
L 65.375 72.90625 
L 65.375 0 
L 55.515625 0 
L 55.515625 34.71875 
L 19.671875 34.71875 
L 19.671875 0 
L 9.8125 0 
z
" id="DejaVuSans-48"/>
     <path d="M 30.609375 48.390625 
Q 23.390625 48.390625 19.1875 42.75 
Q 14.984375 37.109375 14.984375 27.296875 
Q 14.984375 17.484375 19.15625 11.84375 
Q 23.34375 6.203125 30.609375 6.203125 
Q 37.796875 6.203125 41.984375 11.859375 
Q 46.1875 17.53125 46.1875 27.296875 
Q 46.1875 37.015625 41.984375 42.703125 
Q 37.796875 48.390625 30.609375 48.390625 
z
M 30.609375 56 
Q 42.328125 56 49.015625 48.375 
Q 55.71875 40.765625 55.71875 27.296875 
Q 55.71875 13.875 49.015625 6.21875 
Q 42.328125 -1.421875 30.609375 -1.421875 
Q 18.84375 -1.421875 12.171875 6.21875 
Q 5.515625 13.875 5.515625 27.296875 
Q 5.515625 40.765625 12.171875 48.375 
Q 18.84375 56 30.609375 56 
z
" id="DejaVuSans-6f"/>
     <path d="M 8.5 21.578125 
L 8.5 54.6875 
L 17.484375 54.6875 
L 17.484375 21.921875 
Q 17.484375 14.15625 20.5 10.265625 
Q 23.53125 6.390625 29.59375 6.390625 
Q 36.859375 6.390625 41.078125 11.03125 
Q 45.3125 15.671875 45.3125 23.6875 
L 45.3125 54.6875 
L 54.296875 54.6875 
L 54.296875 0 
L 45.3125 0 
L 45.3125 8.40625 
Q 42.046875 3.421875 37.71875 1 
Q 33.40625 -1.421875 27.6875 -1.421875 
Q 18.265625 -1.421875 13.375 4.4375 
Q 8.5 10.296875 8.5 21.578125 
z
M 31.109375 56 
z
" id="DejaVuSans-75"/>
     <path d="M 44.28125 53.078125 
L 44.28125 44.578125 
Q 40.484375 46.53125 36.375 47.5 
Q 32.28125 48.484375 27.875 48.484375 
Q 21.1875 48.484375 17.84375 46.4375 
Q 14.5 44.390625 14.5 40.28125 
Q 14.5 37.15625 16.890625 35.375 
Q 19.28125 33.59375 26.515625 31.984375 
L 29.59375 31.296875 
Q 39.15625 29.25 43.1875 25.515625 
Q 47.21875 21.78125 47.21875 15.09375 
Q 47.21875 7.46875 41.1875 3.015625 
Q 35.15625 -1.421875 24.609375 -1.421875 
Q 20.21875 -1.421875 15.453125 -0.5625 
Q 10.6875 0.296875 5.421875 2 
L 5.421875 11.28125 
Q 10.40625 8.6875 15.234375 7.390625 
Q 20.0625 6.109375 24.8125 6.109375 
Q 31.15625 6.109375 34.5625 8.28125 
Q 37.984375 10.453125 37.984375 14.40625 
Q 37.984375 18.0625 35.515625 20.015625 
Q 33.0625 21.96875 24.703125 23.78125 
L 21.578125 24.515625 
Q 13.234375 26.265625 9.515625 29.90625 
Q 5.8125 33.546875 5.8125 39.890625 
Q 5.8125 47.609375 11.28125 51.796875 
Q 16.75 56 26.8125 56 
Q 31.78125 56 36.171875 55.265625 
Q 40.578125 54.546875 44.28125 53.078125 
z
" id="DejaVuSans-73"/>
     <path d="M 18.3125 70.21875 
L 18.3125 54.6875 
L 36.8125 54.6875 
L 36.8125 47.703125 
L 18.3125 47.703125 
L 18.3125 18.015625 
Q 18.3125 11.328125 20.140625 9.421875 
Q 21.96875 7.515625 27.59375 7.515625 
L 36.8125 7.515625 
L 36.8125 0 
L 27.59375 0 
Q 17.1875 0 13.234375 3.875 
Q 9.28125 7.765625 9.28125 18.015625 
L 9.28125 47.703125 
L 2.6875 47.703125 
L 2.6875 54.6875 
L 9.28125 54.6875 
L 9.28125 70.21875 
z
" id="DejaVuSans-74"/>
     <path d="M 54.890625 33.015625 
L 54.890625 0 
L 45.90625 0 
L 45.90625 32.71875 
Q 45.90625 40.484375 42.875 44.328125 
Q 39.84375 48.1875 33.796875 48.1875 
Q 26.515625 48.1875 22.3125 43.546875 
Q 18.109375 38.921875 18.109375 30.90625 
L 18.109375 0 
L 9.078125 0 
L 9.078125 54.6875 
L 18.109375 54.6875 
L 18.109375 46.1875 
Q 21.34375 51.125 25.703125 53.5625 
Q 30.078125 56 35.796875 56 
Q 45.21875 56 50.046875 50.171875 
Q 54.890625 44.34375 54.890625 33.015625 
z
" id="DejaVuSans-6e"/>
    </defs>
    <g transform="translate(91.651196 271.763228)scale(0.2 -0.2)">
     <use xlink:href="#DejaVuSans-48"/>
     <use x="75.195312" xlink:href="#DejaVuSans-6f"/>
     <use x="136.376953" xlink:href="#DejaVuSans-75"/>
     <use x="199.755859" xlink:href="#DejaVuSans-73"/>
     <use x="251.855469" xlink:href="#DejaVuSans-74"/>
     <use x="291.064453" xlink:href="#DejaVuSans-6f"/>
     <use x="352.246094" xlink:href="#DejaVuSans-6e"/>
    </g>
   </g>
   <g id="text_7">
    <!-- New York -->
    <defs>
     <path d="M 9.8125 72.90625 
L 23.09375 72.90625 
L 55.421875 11.921875 
L 55.421875 72.90625 
L 64.984375 72.90625 
L 64.984375 0 
L 51.703125 0 
L 19.390625 60.984375 
L 19.390625 0 
L 9.8125 0 
z
" id="DejaVuSans-4e"/>
     <path d="M 56.203125 29.59375 
L 56.203125 25.203125 
L 14.890625 25.203125 
Q 15.484375 15.921875 20.484375 11.0625 
Q 25.484375 6.203125 34.421875 6.203125 
Q 39.59375 6.203125 44.453125 7.46875 
Q 49.3125 8.734375 54.109375 11.28125 
L 54.109375 2.78125 
Q 49.265625 0.734375 44.1875 -0.34375 
Q 39.109375 -1.421875 33.890625 -1.421875 
Q 20.796875 -1.421875 13.15625 6.1875 
Q 5.515625 13.8125 5.515625 26.8125 
Q 5.515625 40.234375 12.765625 48.109375 
Q 20.015625 56 32.328125 56 
Q 43.359375 56 49.78125 48.890625 
Q 56.203125 41.796875 56.203125 29.59375 
z
M 47.21875 32.234375 
Q 47.125 39.59375 43.09375 43.984375 
Q 39.0625 48.390625 32.421875 48.390625 
Q 24.90625 48.390625 20.390625 44.140625 
Q 15.875 39.890625 15.1875 32.171875 
z
" id="DejaVuSans-65"/>
     <path d="M 4.203125 54.6875 
L 13.1875 54.6875 
L 24.421875 12.015625 
L 35.59375 54.6875 
L 46.1875 54.6875 
L 57.421875 12.015625 
L 68.609375 54.6875 
L 77.59375 54.6875 
L 63.28125 0 
L 52.6875 0 
L 40.921875 44.828125 
L 29.109375 0 
L 18.5 0 
z
" id="DejaVuSans-77"/>
     <path id="DejaVuSans-20"/>
     <path d="M -0.203125 72.90625 
L 10.40625 72.90625 
L 30.609375 42.921875 
L 50.6875 72.90625 
L 61.28125 72.90625 
L 35.5 34.71875 
L 35.5 0 
L 25.59375 0 
L 25.59375 34.71875 
z
" id="DejaVuSans-59"/>
     <path d="M 9.078125 75.984375 
L 18.109375 75.984375 
L 18.109375 31.109375 
L 44.921875 54.6875 
L 56.390625 54.6875 
L 27.390625 29.109375 
L 57.625 0 
L 45.90625 0 
L 18.109375 26.703125 
L 18.109375 0 
L 9.078125 0 
z
" id="DejaVuSans-6b"/>
    </defs>
    <g transform="translate(86.115259 262.587413)scale(0.2 -0.2)">
     <use xlink:href="#DejaVuSans-4e"/>
     <use x="74.804688" xlink:href="#DejaVuSans-65"/>
     <use x="136.328125" xlink:href="#DejaVuSans-77"/>
     <use x="218.115234" xlink:href="#DejaVuSans-20"/>
     <use x="249.902344" xlink:href="#DejaVuSans-59"/>
     <use x="310.783203" xlink:href="#DejaVuSans-6f"/>
     <use x="371.964844" xlink:href="#DejaVuSans-72"/>
     <use x="413.078125" xlink:href="#DejaVuSans-6b"/>
    </g>
   </g>
   <g id="text_8">
    <!-- General sentiment across cities, 2019 (5-day rolling average) -->
    <defs>
     <path d="M 59.515625 10.40625 
L 59.515625 29.984375 
L 43.40625 29.984375 
L 43.40625 38.09375 
L 69.28125 38.09375 
L 69.28125 6.78125 
Q 63.578125 2.734375 56.6875 0.65625 
Q 49.8125 -1.421875 42 -1.421875 
Q 24.90625 -1.421875 15.25 8.5625 
Q 5.609375 18.5625 5.609375 36.375 
Q 5.609375 54.25 15.25 64.234375 
Q 24.90625 74.21875 42 74.21875 
Q 49.125 74.21875 55.546875 72.453125 
Q 61.96875 70.703125 67.390625 67.28125 
L 67.390625 56.78125 
Q 61.921875 61.421875 55.765625 63.765625 
Q 49.609375 66.109375 42.828125 66.109375 
Q 29.4375 66.109375 22.71875 58.640625 
Q 16.015625 51.171875 16.015625 36.375 
Q 16.015625 21.625 22.71875 14.15625 
Q 29.4375 6.6875 42.828125 6.6875 
Q 48.046875 6.6875 52.140625 7.59375 
Q 56.25 8.5 59.515625 10.40625 
z
" id="DejaVuSans-47"/>
     <path d="M 9.421875 75.984375 
L 18.40625 75.984375 
L 18.40625 0 
L 9.421875 0 
z
" id="DejaVuSans-6c"/>
     <path d="M 9.421875 54.6875 
L 18.40625 54.6875 
L 18.40625 0 
L 9.421875 0 
z
M 9.421875 75.984375 
L 18.40625 75.984375 
L 18.40625 64.59375 
L 9.421875 64.59375 
z
" id="DejaVuSans-69"/>
     <path d="M 52 44.1875 
Q 55.375 50.25 60.0625 53.125 
Q 64.75 56 71.09375 56 
Q 79.640625 56 84.28125 50.015625 
Q 88.921875 44.046875 88.921875 33.015625 
L 88.921875 0 
L 79.890625 0 
L 79.890625 32.71875 
Q 79.890625 40.578125 77.09375 44.375 
Q 74.3125 48.1875 68.609375 48.1875 
Q 61.625 48.1875 57.5625 43.546875 
Q 53.515625 38.921875 53.515625 30.90625 
L 53.515625 0 
L 44.484375 0 
L 44.484375 32.71875 
Q 44.484375 40.625 41.703125 44.40625 
Q 38.921875 48.1875 33.109375 48.1875 
Q 26.21875 48.1875 22.15625 43.53125 
Q 18.109375 38.875 18.109375 30.90625 
L 18.109375 0 
L 9.078125 0 
L 9.078125 54.6875 
L 18.109375 54.6875 
L 18.109375 46.1875 
Q 21.1875 51.21875 25.484375 53.609375 
Q 29.78125 56 35.6875 56 
Q 41.65625 56 45.828125 52.96875 
Q 50 49.953125 52 44.1875 
z
" id="DejaVuSans-6d"/>
     <path d="M 48.78125 52.59375 
L 48.78125 44.1875 
Q 44.96875 46.296875 41.140625 47.34375 
Q 37.3125 48.390625 33.40625 48.390625 
Q 24.65625 48.390625 19.8125 42.84375 
Q 14.984375 37.3125 14.984375 27.296875 
Q 14.984375 17.28125 19.8125 11.734375 
Q 24.65625 6.203125 33.40625 6.203125 
Q 37.3125 6.203125 41.140625 7.25 
Q 44.96875 8.296875 48.78125 10.40625 
L 48.78125 2.09375 
Q 45.015625 0.34375 40.984375 -0.53125 
Q 36.96875 -1.421875 32.421875 -1.421875 
Q 20.0625 -1.421875 12.78125 6.34375 
Q 5.515625 14.109375 5.515625 27.296875 
Q 5.515625 40.671875 12.859375 48.328125 
Q 20.21875 56 33.015625 56 
Q 37.15625 56 41.109375 55.140625 
Q 45.0625 54.296875 48.78125 52.59375 
z
" id="DejaVuSans-63"/>
     <path d="M 11.71875 12.40625 
L 22.015625 12.40625 
L 22.015625 4 
L 14.015625 -11.625 
L 7.71875 -11.625 
L 11.71875 4 
z
" id="DejaVuSans-2c"/>
     <path d="M 19.1875 8.296875 
L 53.609375 8.296875 
L 53.609375 0 
L 7.328125 0 
L 7.328125 8.296875 
Q 12.9375 14.109375 22.625 23.890625 
Q 32.328125 33.6875 34.8125 36.53125 
Q 39.546875 41.84375 41.421875 45.53125 
Q 43.3125 49.21875 43.3125 52.78125 
Q 43.3125 58.59375 39.234375 62.25 
Q 35.15625 65.921875 28.609375 65.921875 
Q 23.96875 65.921875 18.8125 64.3125 
Q 13.671875 62.703125 7.8125 59.421875 
L 7.8125 69.390625 
Q 13.765625 71.78125 18.9375 73 
Q 24.125 74.21875 28.421875 74.21875 
Q 39.75 74.21875 46.484375 68.546875 
Q 53.21875 62.890625 53.21875 53.421875 
Q 53.21875 48.921875 51.53125 44.890625 
Q 49.859375 40.875 45.40625 35.40625 
Q 44.1875 33.984375 37.640625 27.21875 
Q 31.109375 20.453125 19.1875 8.296875 
z
" id="DejaVuSans-32"/>
     <path d="M 31.78125 66.40625 
Q 24.171875 66.40625 20.328125 58.90625 
Q 16.5 51.421875 16.5 36.375 
Q 16.5 21.390625 20.328125 13.890625 
Q 24.171875 6.390625 31.78125 6.390625 
Q 39.453125 6.390625 43.28125 13.890625 
Q 47.125 21.390625 47.125 36.375 
Q 47.125 51.421875 43.28125 58.90625 
Q 39.453125 66.40625 31.78125 66.40625 
z
M 31.78125 74.21875 
Q 44.046875 74.21875 50.515625 64.515625 
Q 56.984375 54.828125 56.984375 36.375 
Q 56.984375 17.96875 50.515625 8.265625 
Q 44.046875 -1.421875 31.78125 -1.421875 
Q 19.53125 -1.421875 13.0625 8.265625 
Q 6.59375 17.96875 6.59375 36.375 
Q 6.59375 54.828125 13.0625 64.515625 
Q 19.53125 74.21875 31.78125 74.21875 
z
" id="DejaVuSans-30"/>
     <path d="M 12.40625 8.296875 
L 28.515625 8.296875 
L 28.515625 63.921875 
L 10.984375 60.40625 
L 10.984375 69.390625 
L 28.421875 72.90625 
L 38.28125 72.90625 
L 38.28125 8.296875 
L 54.390625 8.296875 
L 54.390625 0 
L 12.40625 0 
z
" id="DejaVuSans-31"/>
     <path d="M 10.984375 1.515625 
L 10.984375 10.5 
Q 14.703125 8.734375 18.5 7.8125 
Q 22.3125 6.890625 25.984375 6.890625 
Q 35.75 6.890625 40.890625 13.453125 
Q 46.046875 20.015625 46.78125 33.40625 
Q 43.953125 29.203125 39.59375 26.953125 
Q 35.25 24.703125 29.984375 24.703125 
Q 19.046875 24.703125 12.671875 31.3125 
Q 6.296875 37.9375 6.296875 49.421875 
Q 6.296875 60.640625 12.9375 67.421875 
Q 19.578125 74.21875 30.609375 74.21875 
Q 43.265625 74.21875 49.921875 64.515625 
Q 56.59375 54.828125 56.59375 36.375 
Q 56.59375 19.140625 48.40625 8.859375 
Q 40.234375 -1.421875 26.421875 -1.421875 
Q 22.703125 -1.421875 18.890625 -0.6875 
Q 15.09375 0.046875 10.984375 1.515625 
z
M 30.609375 32.421875 
Q 37.25 32.421875 41.125 36.953125 
Q 45.015625 41.5 45.015625 49.421875 
Q 45.015625 57.28125 41.125 61.84375 
Q 37.25 66.40625 30.609375 66.40625 
Q 23.96875 66.40625 20.09375 61.84375 
Q 16.21875 57.28125 16.21875 49.421875 
Q 16.21875 41.5 20.09375 36.953125 
Q 23.96875 32.421875 30.609375 32.421875 
z
" id="DejaVuSans-39"/>
     <path d="M 31 75.875 
Q 24.46875 64.65625 21.28125 53.65625 
Q 18.109375 42.671875 18.109375 31.390625 
Q 18.109375 20.125 21.3125 9.0625 
Q 24.515625 -2 31 -13.1875 
L 23.1875 -13.1875 
Q 15.875 -1.703125 12.234375 9.375 
Q 8.59375 20.453125 8.59375 31.390625 
Q 8.59375 42.28125 12.203125 53.3125 
Q 15.828125 64.359375 23.1875 75.875 
z
" id="DejaVuSans-28"/>
     <path d="M 10.796875 72.90625 
L 49.515625 72.90625 
L 49.515625 64.59375 
L 19.828125 64.59375 
L 19.828125 46.734375 
Q 21.96875 47.46875 24.109375 47.828125 
Q 26.265625 48.1875 28.421875 48.1875 
Q 40.625 48.1875 47.75 41.5 
Q 54.890625 34.8125 54.890625 23.390625 
Q 54.890625 11.625 47.5625 5.09375 
Q 40.234375 -1.421875 26.90625 -1.421875 
Q 22.3125 -1.421875 17.546875 -0.640625 
Q 12.796875 0.140625 7.71875 1.703125 
L 7.71875 11.625 
Q 12.109375 9.234375 16.796875 8.0625 
Q 21.484375 6.890625 26.703125 6.890625 
Q 35.15625 6.890625 40.078125 11.328125 
Q 45.015625 15.765625 45.015625 23.390625 
Q 45.015625 31 40.078125 35.4375 
Q 35.15625 39.890625 26.703125 39.890625 
Q 22.75 39.890625 18.8125 39.015625 
Q 14.890625 38.140625 10.796875 36.28125 
z
" id="DejaVuSans-35"/>
     <path d="M 4.890625 31.390625 
L 31.203125 31.390625 
L 31.203125 23.390625 
L 4.890625 23.390625 
z
" id="DejaVuSans-2d"/>
     <path d="M 45.40625 46.390625 
L 45.40625 75.984375 
L 54.390625 75.984375 
L 54.390625 0 
L 45.40625 0 
L 45.40625 8.203125 
Q 42.578125 3.328125 38.25 0.953125 
Q 33.9375 -1.421875 27.875 -1.421875 
Q 17.96875 -1.421875 11.734375 6.484375 
Q 5.515625 14.40625 5.515625 27.296875 
Q 5.515625 40.1875 11.734375 48.09375 
Q 17.96875 56 27.875 56 
Q 33.9375 56 38.25 53.625 
Q 42.578125 51.265625 45.40625 46.390625 
z
M 14.796875 27.296875 
Q 14.796875 17.390625 18.875 11.75 
Q 22.953125 6.109375 30.078125 6.109375 
Q 37.203125 6.109375 41.296875 11.75 
Q 45.40625 17.390625 45.40625 27.296875 
Q 45.40625 37.203125 41.296875 42.84375 
Q 37.203125 48.484375 30.078125 48.484375 
Q 22.953125 48.484375 18.875 42.84375 
Q 14.796875 37.203125 14.796875 27.296875 
z
" id="DejaVuSans-64"/>
     <path d="M 45.40625 27.984375 
Q 45.40625 37.75 41.375 43.109375 
Q 37.359375 48.484375 30.078125 48.484375 
Q 22.859375 48.484375 18.828125 43.109375 
Q 14.796875 37.75 14.796875 27.984375 
Q 14.796875 18.265625 18.828125 12.890625 
Q 22.859375 7.515625 30.078125 7.515625 
Q 37.359375 7.515625 41.375 12.890625 
Q 45.40625 18.265625 45.40625 27.984375 
z
M 54.390625 6.78125 
Q 54.390625 -7.171875 48.1875 -13.984375 
Q 42 -20.796875 29.203125 -20.796875 
Q 24.46875 -20.796875 20.265625 -20.09375 
Q 16.0625 -19.390625 12.109375 -17.921875 
L 12.109375 -9.1875 
Q 16.0625 -11.328125 19.921875 -12.34375 
Q 23.78125 -13.375 27.78125 -13.375 
Q 36.625 -13.375 41.015625 -8.765625 
Q 45.40625 -4.15625 45.40625 5.171875 
L 45.40625 9.625 
Q 42.625 4.78125 38.28125 2.390625 
Q 33.9375 0 27.875 0 
Q 17.828125 0 11.671875 7.65625 
Q 5.515625 15.328125 5.515625 27.984375 
Q 5.515625 40.671875 11.671875 48.328125 
Q 17.828125 56 27.875 56 
Q 33.9375 56 38.28125 53.609375 
Q 42.625 51.21875 45.40625 46.390625 
L 45.40625 54.6875 
L 54.390625 54.6875 
z
" id="DejaVuSans-67"/>
     <path d="M 2.984375 54.6875 
L 12.5 54.6875 
L 29.59375 8.796875 
L 46.6875 54.6875 
L 56.203125 54.6875 
L 35.6875 0 
L 23.484375 0 
z
" id="DejaVuSans-76"/>
     <path d="M 8.015625 75.875 
L 15.828125 75.875 
Q 23.140625 64.359375 26.78125 53.3125 
Q 30.421875 42.28125 30.421875 31.390625 
Q 30.421875 20.453125 26.78125 9.375 
Q 23.140625 -1.703125 15.828125 -13.1875 
L 8.015625 -13.1875 
Q 14.5 -2 17.703125 9.0625 
Q 20.90625 20.125 20.90625 31.390625 
Q 20.90625 42.671875 17.703125 53.65625 
Q 14.5 64.65625 8.015625 75.875 
z
" id="DejaVuSans-29"/>
    </defs>
    <g transform="translate(233.455 32.8)scale(0.28 -0.28)">
     <use xlink:href="#DejaVuSans-47"/>
     <use x="77.490234" xlink:href="#DejaVuSans-65"/>
     <use x="139.013672" xlink:href="#DejaVuSans-6e"/>
     <use x="202.392578" xlink:href="#DejaVuSans-65"/>
     <use x="263.916016" xlink:href="#DejaVuSans-72"/>
     <use x="305.029297" xlink:href="#DejaVuSans-61"/>
     <use x="366.308594" xlink:href="#DejaVuSans-6c"/>
     <use x="394.091797" xlink:href="#DejaVuSans-20"/>
     <use x="425.878906" xlink:href="#DejaVuSans-73"/>
     <use x="477.978516" xlink:href="#DejaVuSans-65"/>
     <use x="539.501953" xlink:href="#DejaVuSans-6e"/>
     <use x="602.880859" xlink:href="#DejaVuSans-74"/>
     <use x="642.089844" xlink:href="#DejaVuSans-69"/>
     <use x="669.873047" xlink:href="#DejaVuSans-6d"/>
     <use x="767.285156" xlink:href="#DejaVuSans-65"/>
     <use x="828.808594" xlink:href="#DejaVuSans-6e"/>
     <use x="892.1875" xlink:href="#DejaVuSans-74"/>
     <use x="931.396484" xlink:href="#DejaVuSans-20"/>
     <use x="963.183594" xlink:href="#DejaVuSans-61"/>
     <use x="1024.462891" xlink:href="#DejaVuSans-63"/>
     <use x="1079.443359" xlink:href="#DejaVuSans-72"/>
     <use x="1120.525391" xlink:href="#DejaVuSans-6f"/>
     <use x="1181.707031" xlink:href="#DejaVuSans-73"/>
     <use x="1233.806641" xlink:href="#DejaVuSans-73"/>
     <use x="1285.90625" xlink:href="#DejaVuSans-20"/>
     <use x="1317.693359" xlink:href="#DejaVuSans-63"/>
     <use x="1372.673828" xlink:href="#DejaVuSans-69"/>
     <use x="1400.457031" xlink:href="#DejaVuSans-74"/>
     <use x="1439.666016" xlink:href="#DejaVuSans-69"/>
     <use x="1467.449219" xlink:href="#DejaVuSans-65"/>
     <use x="1528.972656" xlink:href="#DejaVuSans-73"/>
     <use x="1581.072266" xlink:href="#DejaVuSans-2c"/>
     <use x="1612.859375" xlink:href="#DejaVuSans-20"/>
     <use x="1644.646484" xlink:href="#DejaVuSans-32"/>
     <use x="1708.269531" xlink:href="#DejaVuSans-30"/>
     <use x="1771.892578" xlink:href="#DejaVuSans-31"/>
     <use x="1835.515625" xlink:href="#DejaVuSans-39"/>
     <use x="1899.138672" xlink:href="#DejaVuSans-20"/>
     <use x="1930.925781" xlink:href="#DejaVuSans-28"/>
     <use x="1969.939453" xlink:href="#DejaVuSans-35"/>
     <use x="2033.5625" xlink:href="#DejaVuSans-2d"/>
     <use x="2069.646484" xlink:href="#DejaVuSans-64"/>
     <use x="2133.123047" xlink:href="#DejaVuSans-61"/>
     <use x="2194.402344" xlink:href="#DejaVuSans-79"/>
     <use x="2253.582031" xlink:href="#DejaVuSans-20"/>
     <use x="2285.369141" xlink:href="#DejaVuSans-72"/>
     <use x="2326.451172" xlink:href="#DejaVuSans-6f"/>
     <use x="2387.632812" xlink:href="#DejaVuSans-6c"/>
     <use x="2415.416016" xlink:href="#DejaVuSans-6c"/>
     <use x="2443.199219" xlink:href="#DejaVuSans-69"/>
     <use x="2470.982422" xlink:href="#DejaVuSans-6e"/>
     <use x="2534.361328" xlink:href="#DejaVuSans-67"/>
     <use x="2597.837891" xlink:href="#DejaVuSans-20"/>
     <use x="2629.625" xlink:href="#DejaVuSans-61"/>
     <use x="2690.904297" xlink:href="#DejaVuSans-76"/>
     <use x="2750.083984" xlink:href="#DejaVuSans-65"/>
     <use x="2811.607422" xlink:href="#DejaVuSans-72"/>
     <use x="2852.720703" xlink:href="#DejaVuSans-61"/>
     <use x="2914" xlink:href="#DejaVuSans-67"/>
     <use x="2977.476562" xlink:href="#DejaVuSans-65"/>
     <use x="3039" xlink:href="#DejaVuSans-29"/>
    </g>
   </g>
  </g>
 </g>
 <defs>
  <clipPath id="pf42f0bc4fe">
   <rect height="504.4" width="1234.65" x="47.05" y="38.8"/>
  </clipPath>
 </defs>
</svg>
